<mxfile host="app.diagrams.net" modified="2021-11-21T12:53:41.752Z" agent="5.0 (Macintosh; Intel Mac OS X 10_15_7) AppleWebKit/537.36 (KHTML, like Gecko) Chrome/86.0.4240.193 Safari/537.36" etag="iyxdnD--HicwWpYDPgRf" version="15.8.3" type="github">
  <diagram id="VyNL16RFfsnzIV1twqjP" name="Page-1">
    <mxGraphModel dx="1426" dy="771" grid="1" gridSize="10" guides="1" tooltips="1" connect="1" arrows="1" fold="1" page="1" pageScale="1" pageWidth="827" pageHeight="1169" math="0" shadow="0">
      <root>
        <mxCell id="0" />
        <mxCell id="1" parent="0" />
        <mxCell id="yegLcOGiMJ1FmYZjKAWX-13" value="" style="edgeStyle=orthogonalEdgeStyle;rounded=0;orthogonalLoop=1;jettySize=auto;html=1;fillColor=#fff2cc;strokeColor=#d6b656;" edge="1" parent="1" source="yegLcOGiMJ1FmYZjKAWX-1" target="yegLcOGiMJ1FmYZjKAWX-3">
          <mxGeometry relative="1" as="geometry" />
        </mxCell>
        <mxCell id="yegLcOGiMJ1FmYZjKAWX-1" value="Producer" style="rounded=0;whiteSpace=wrap;html=1;fillColor=#fff2cc;strokeColor=#d6b656;" vertex="1" parent="1">
          <mxGeometry x="70" y="240" width="120" height="60" as="geometry" />
        </mxCell>
        <mxCell id="yegLcOGiMJ1FmYZjKAWX-14" value="" style="edgeStyle=orthogonalEdgeStyle;rounded=0;orthogonalLoop=1;jettySize=auto;html=1;fillColor=#fff2cc;strokeColor=#d6b656;" edge="1" parent="1" source="yegLcOGiMJ1FmYZjKAWX-3" target="yegLcOGiMJ1FmYZjKAWX-4">
          <mxGeometry relative="1" as="geometry" />
        </mxCell>
        <mxCell id="yegLcOGiMJ1FmYZjKAWX-3" value="CommitLog" style="rounded=0;whiteSpace=wrap;html=1;fillColor=#fff2cc;strokeColor=#d6b656;" vertex="1" parent="1">
          <mxGeometry x="230" y="240" width="120" height="60" as="geometry" />
        </mxCell>
        <mxCell id="yegLcOGiMJ1FmYZjKAWX-15" value="" style="edgeStyle=orthogonalEdgeStyle;rounded=0;orthogonalLoop=1;jettySize=auto;html=1;fillColor=#fff2cc;strokeColor=#d6b656;" edge="1" parent="1" source="yegLcOGiMJ1FmYZjKAWX-4" target="yegLcOGiMJ1FmYZjKAWX-5">
          <mxGeometry relative="1" as="geometry" />
        </mxCell>
        <mxCell id="yegLcOGiMJ1FmYZjKAWX-4" value="MappedFile" style="rounded=0;whiteSpace=wrap;html=1;fillColor=#fff2cc;strokeColor=#d6b656;" vertex="1" parent="1">
          <mxGeometry x="390" y="240" width="120" height="60" as="geometry" />
        </mxCell>
        <mxCell id="yegLcOGiMJ1FmYZjKAWX-9" value="" style="edgeStyle=orthogonalEdgeStyle;rounded=0;orthogonalLoop=1;jettySize=auto;html=1;fillColor=#fff2cc;strokeColor=#d6b656;" edge="1" parent="1" source="yegLcOGiMJ1FmYZjKAWX-5" target="yegLcOGiMJ1FmYZjKAWX-6">
          <mxGeometry relative="1" as="geometry" />
        </mxCell>
        <mxCell id="yegLcOGiMJ1FmYZjKAWX-5" value="PageCache" style="rounded=0;whiteSpace=wrap;html=1;fillColor=#fff2cc;strokeColor=#d6b656;" vertex="1" parent="1">
          <mxGeometry x="390" y="330" width="120" height="60" as="geometry" />
        </mxCell>
        <mxCell id="yegLcOGiMJ1FmYZjKAWX-11" value="" style="edgeStyle=orthogonalEdgeStyle;rounded=0;orthogonalLoop=1;jettySize=auto;html=1;fillColor=#fff2cc;strokeColor=#d6b656;" edge="1" parent="1" source="yegLcOGiMJ1FmYZjKAWX-6" target="yegLcOGiMJ1FmYZjKAWX-8">
          <mxGeometry relative="1" as="geometry" />
        </mxCell>
        <mxCell id="yegLcOGiMJ1FmYZjKAWX-6" value="&lt;pre&gt;GroupCommitService&lt;/pre&gt;" style="rounded=0;whiteSpace=wrap;html=1;fillColor=#fff2cc;strokeColor=#d6b656;" vertex="1" parent="1">
          <mxGeometry x="360" y="430" width="180" height="60" as="geometry" />
        </mxCell>
        <mxCell id="yegLcOGiMJ1FmYZjKAWX-8" value="Disk" style="rounded=0;whiteSpace=wrap;html=1;fillColor=#fff2cc;strokeColor=#d6b656;" vertex="1" parent="1">
          <mxGeometry x="390" y="530" width="120" height="60" as="geometry" />
        </mxCell>
      </root>
    </mxGraphModel>
  </diagram>
</mxfile>
